<svg xmlns="http://www.w3.org/2000/svg" width="32" height="32" viewBox="0 0 24 24" style="display: inline-block;vertical-align: middle;margin:3px 4px 0 4px;float: left;">
    <path fill="#ffffff" fill-rule="evenodd" stroke="#7a7a7a" class="hard" stroke-width="1.2" d="M12 19.587c-1.116-1.104-3.173-3.126-3.917-3.87l-.317-.317c-.912-.914-1.69-1.712-2.335-2.393-1.867-1.975-1.894-4.871-.16-6.695 1.668-1.756 4.341-1.748 6 .017l.729.775.729-.775c1.659-1.765 4.331-1.773 6-.017 1.734 1.824 1.707 4.72-.16 6.695-.644.681-1.424 1.478-2.335 2.393l-.316.316c-.738.737-2.8 2.765-3.918 3.871z"></path>
</svg>