<svg width="120" height="22" xmlns="http://www.w3.org/2000/svg"><svg width="19" height="19" viewBox="0 0 512.035 512.035"><path d="M488.502 256.035l22.464-58.592c2.464-6.464.544-13.792-4.864-18.176l-48.704-39.488-9.856-61.984c-1.088-6.848-6.464-12.192-13.312-13.28l-61.984-9.856L332.79 5.923c-4.352-5.408-11.84-7.328-18.144-4.864l-58.624 22.496L197.43 1.091c-6.496-2.496-13.76-.512-18.144 4.864l-39.488 48.736-61.984 9.856a16.033 16.033 0 00-13.28 13.28l-9.856 61.984-48.736 39.488c-5.376 4.352-7.328 11.68-4.864 18.144l22.464 58.592-22.464 58.592c-2.496 6.464-.512 13.792 4.864 18.144l48.736 39.456 9.856 61.984c1.088 6.848 6.432 12.224 13.28 13.312l61.984 9.856 39.488 48.704a15.923 15.923 0 0018.176 4.864l58.56-22.432 58.592 22.464a16.066 16.066 0 005.728 1.056c4.704 0 9.344-2.08 12.448-5.952l39.456-48.704 61.984-9.856a16.03 16.03 0 0013.312-13.312l9.856-61.984 48.704-39.456c5.408-4.384 7.328-11.68 4.864-18.144l-22.464-58.592z" fill="#f44336"/><g fill="#fafafa"><path d="M208.022 224.035c-26.464 0-48-21.536-48-48s21.536-48 48-48 48 21.536 48 48-21.536 48-48 48zm0-64c-8.832 0-16 7.168-16 16s7.168 16 16 16 16-7.168 16-16-7.168-16-16-16zM304.022 384.035c-26.464 0-48-21.536-48-48s21.536-48 48-48 48 21.536 48 48-21.536 48-48 48zm0-64c-8.8 0-16 7.2-16 16s7.2 16 16 16 16-7.2 16-16-7.2-16-16-16zM176.022 384.035c-3.232 0-6.464-.96-9.28-2.976-7.2-5.152-8.864-15.136-3.712-22.336l160-224c5.152-7.2 15.136-8.864 22.336-3.712 7.2 5.12 8.832 15.136 3.712 22.304l-160 224c-3.168 4.384-8.064 6.72-13.056 6.72z"/></g></svg><svg xmlns="http://www.w3.org/2000/svg" x="19" y="-3" width="24" height="24" viewBox="0 0 500 500"><g xmlns="http://www.w3.org/2000/svg"><circle cx="256" cy="256" r="190.395" fill="#008b4a"/><path d="M256 117.112l40.818 82.707 91.272 13.262-66.045 64.378 15.591 90.903L256 325.444l-81.636 42.918 15.591-90.903-66.045-64.378 91.272-13.262z" fill="#fedd55"/><path d="M322.04 277.46l15.6 90.9L256 325.44V117.11l40.82 82.71 91.27 13.26z" fill="#fcc63d"/></g></svg><svg x="44" y="1" width="18" height="18" viewBox="0 0 512 512"><path d="M256.315 483.159c-19.555 0-36.228-12.541-42.42-30h84.84c-6.192 17.459-22.865 30-42.42 30zm-177.67-60c34.161-45.792 52.67-101.208 52.67-159.138v-47.862c0-68.925 56.075-125 125-125s125 56.075 125 125v47.862c0 57.93 18.509 113.346 52.671 159.138H78.645z" fill="#fff"/><path d="M411 262.862V215c0-69.822-46.411-129.001-110-148.33V45c0-24.813-20.187-45-45-45s-45 20.187-45 45v21.67C147.41 85.999 101 145.177 101 215v47.862c0 61.332-23.378 119.488-65.827 163.756A14.999 14.999 0 0046 452h136.509c6.968 34.192 37.272 60 73.491 60 36.22 0 66.522-25.808 73.491-60H466a15 15 0 0010.827-25.382C434.378 382.35 411 324.193 411 262.862zM241 45c0-8.271 6.729-15 15-15s15 6.729 15 15v15.728c-4.937-.476-9.94-.728-15-.728s-10.063.252-15 .728zm15 437c-19.555 0-36.228-12.541-42.42-30h84.84c-6.192 17.459-22.865 30-42.42 30zM78.33 422C112.491 376.208 131 320.792 131 262.862V215c0-68.925 56.075-125 125-125s125 56.075 125 125v47.862c0 57.93 18.509 113.346 52.671 159.138z" stroke="#000" stroke-width="5"/><path d="M451 215c0 8.284 6.716 15 15 15s15-6.716 15-15c0-60.1-23.404-116.603-65.901-159.1-5.857-5.857-15.355-5.858-21.213 0s-5.858 15.355 0 21.213C430.717 113.944 451 162.913 451 215zM46 230c8.284 0 15-6.716 15-15 0-52.086 20.284-101.055 57.114-137.886 5.858-5.858 5.858-15.355 0-21.213-5.857-5.858-15.355-5.858-21.213 0C54.404 98.398 31 154.9 31 215c0 8.284 6.716 15 15 15z"/></svg><svg x="66" width="18" height="19" viewBox="10 0 512 512"><path d="M233.26 107.25C192.943 62.6 130.885 1.913 108.905 24.09c-33.61 33.91-69.009 125.923 0 125.923H233.26V107.25zm67.721 0C341.295 62.6 403.354 1.913 425.334 24.09c33.61 33.91 69.01 125.923 0 125.923H300.981V107.25z" fill="#477cff"/><path fill="#e0e0e0" d="M53.958 229.801h426.318v275.54H53.958v-275.54z"/><path fill="#5a5a5a" d="M53.958 229.801h426.318v32.337H53.958z"/><path fill="#d0d0d0" d="M19.204 150.026h495.832v79.775H19.204z"/><path d="M213.107 150.026h108.027V229.8H213.107v-79.775zm12.72 79.775h82.598v274.364h-82.599V229.8z" fill="#477cff"/><path fill="#00f" d="M225.826 229.801h82.599v32.164h-82.599z"/><path d="M121.366 88.987c-30.494-13.804-43.225-8.35-48.487-.398-8.662 31.815-3.119 61.423 36.026 61.423h92.012c.001 0-23.003-35.428-79.55-61.025zm291.508 0c30.494-13.804 43.225-8.35 48.486-.398 8.662 31.815 3.12 61.423-36.026 61.423h-92.012s23.003-35.428 79.552-61.025z" fill="#969eff"/><path fill="#00f" d="M233.263 99.257h67.722v50.758h-67.722z"/><path d="M515.036 141.944h-50.783a36.399 36.399 0 001.649-2.362l.043-.068a40.506 40.506 0 002.851-5.294l.018-.043c.129-.291.257-.581.376-.87.139-.333.252-.686.384-1.025.189-.486.376-.971.55-1.469.142-.412.272-.834.402-1.255.205-.651.403-1.306.583-1.976.059-.227.113-.458.17-.688 2.331-9.256 2.253-20.256-.281-32.672l-.027-.124a114.474 114.474 0 00-.852-3.843c-.143-.603-.308-1.214-.462-1.822-.168-.656-.319-1.304-.499-1.968-.01-.037-.028-.069-.038-.106a146.005 146.005 0 00-4.589-13.98c-7.927-20.661-20.434-40.84-33.457-53.981-4.779-4.821-11.214-7.265-18.539-7.108-22.87.532-59.31 27.619-108.391 80.53a8.067 8.067 0 00-3.166-.645h-67.722a8.067 8.067 0 00-3.166.645c-49.081-52.911-85.521-79.996-108.391-80.53-7.344-.158-13.761 2.287-18.539 7.108-13.022 13.14-25.53 33.32-33.456 53.981a146.49 146.49 0 00-4.586 13.972c-.012.039-.03.075-.041.115-.196.722-.362 1.426-.543 2.14-.137.54-.283 1.084-.412 1.621-3.379 14.067-3.746 26.441-1.162 36.682.055.222.107.447.165.667.18.676.382 1.338.589 1.994.129.415.257.831.397 1.237.175.502.364.994.555 1.484.129.336.243.686.379 1.015.12.287.246.575.374.864l.023.052c.427.956.89 1.895 1.389 2.815.447.825.931 1.65 1.461 2.475l.044.07c.511.791 1.056 1.58 1.649 2.362H19.204a8.084 8.084 0 00-8.084 8.084v79.773a8.082 8.082 0 008.084 8.084h198.533v261.749c0 4.465 16.168 4.464 16.168 0V237.885h66.43v260.543H62.042V232.714c0-4.465-16.168-4.464-16.168 0v273.799a8.082 8.082 0 008.084 8.084h426.323a8.084 8.084 0 008.084-8.084v-272.87c0-4.465-16.168-4.464-16.168 0v264.786H316.504V237.886h198.532a8.084 8.084 0 008.084-8.084v-79.773a8.084 8.084 0 00-8.084-8.085zm-58.438-25.058c-.013.151-.026.303-.041.453a41.66 41.66 0 01-.227 1.862c-.047.331-.093.665-.148.988-.067.404-.149.797-.229 1.191-.093.455-.181.913-.289 1.353-.05.204-.11.399-.163.6-.729 2.752-1.756 5.213-3.095 7.333a20.913 20.913 0 01-2.217 2.898c-.063.068-.128.132-.191.198a19.715 19.715 0 01-2.216 2.027c-.257.203-.512.406-.779.598-.093.068-.191.129-.286.195-3.747 2.601-8.598 4.259-14.516 4.957a54.412 54.412 0 01-3.252.278c-.366.02-.73.043-1.103.058-.821.03-1.654.051-2.51.051h-74.813c11.415-12.052 32.621-30.609 65.688-45.577 18.872-8.542 32.447-10.046 37.657-4.258 2.305 8.943 3.355 17.47 2.73 24.795zm-215.255-9.541h51.554v34.584h-51.554v-34.584zM80.374 92.092c5.212-5.786 18.789-4.282 37.657 4.259 33.07 14.969 54.277 33.529 65.688 45.577h-74.813c-.858 0-1.69-.02-2.51-.051-.373-.014-.737-.038-1.103-.058a53.65 53.65 0 01-2.658-.211c-.2-.02-.397-.044-.594-.067-5.918-.698-10.769-2.356-14.516-4.957-.095-.066-.193-.128-.286-.195-.268-.193-.523-.397-.779-.598-.418-.33-.824-.675-1.216-1.036-.344-.32-.679-.649-.999-.991-.063-.067-.129-.13-.191-.198a21.13 21.13 0 01-2.217-2.898c-1.338-2.116-2.363-4.572-3.091-7.318-.055-.207-.117-.409-.168-.619-.107-.434-.194-.887-.286-1.336-.081-.402-.164-.802-.233-1.214-.054-.316-.097-.641-.144-.965a43.104 43.104 0 01-.231-1.894c-.014-.139-.026-.279-.039-.419-.63-7.33.42-15.864 2.729-24.811zm124.648 129.626H27.288v-63.604h177.734v63.604zm.032-79.789c-7.658-10.068-32.338-38.571-80.355-60.306-11.721-5.305-25.641-9.866-37.612-9.01 6.948-16.312 16.937-32.112 27.56-42.831 1.082-1.092 2.773-2.329 6.312-2.329.12 0 .243.002.366.004 18.553.432 56.328 30.61 103.849 82.913v31.561h-20.121v-.002h.001zm107.995 79.789h-91.86v-63.604h91.859v63.604h.001zm-3.984-79.789v-31.561c47.521-52.303 85.296-82.48 103.849-82.913 3.778-.085 5.561 1.196 6.679 2.325 10.624 10.72 20.613 26.518 27.561 42.83-11.972-.856-25.892 3.706-37.612 9.011-48.018 21.736-72.696 50.24-80.355 60.306h-20.121v.002h-.001zm197.887 79.789H329.217v-63.604h177.734v63.604h.001z" stroke-width="4" stroke="#000"/></svg><svg x="88" width="17" height="19" viewBox="-20 0 482.533 442.533"><path d="M434.539 98.499l-38.828-38.828c-5.324-5.328-11.799-7.993-19.41-7.993-7.618 0-14.093 2.665-19.417 7.993L169.59 247.248l-83.939-84.225c-5.33-5.33-11.801-7.992-19.412-7.992-7.616 0-14.087 2.662-19.417 7.992L7.994 201.852C2.664 207.181 0 213.654 0 221.269c0 7.609 2.664 14.088 7.994 19.416l103.351 103.349 38.831 38.828c5.327 5.332 11.8 7.994 19.414 7.994 7.611 0 14.084-2.669 19.414-7.994l38.83-38.828L434.539 137.33c5.325-5.33 7.994-11.802 7.994-19.417.004-7.611-2.669-14.084-7.994-19.414z" stroke="#000" stroke-width="18" fill="#fff"/></svg></svg>