<svg xmlns="http://www.w3.org/2000/svg" width="30" height="288" viewBox="0 0 36 288"><svg viewBox="0 0 100.752 100.748" width="30" height="36"><path d="M26.831 41.646c0 2.772 2.255 5.028 5.028 5.028s5.028-2.256 5.028-5.028-2.256-5.028-5.028-5.028-5.028 2.256-5.028 5.028zm7.15 0c0 1.17-.952 2.122-2.122 2.122s-2.122-.952-2.122-2.122.952-2.122 2.122-2.122 2.122.952 2.122 2.122z"/><path d="M76.427 26.049a1.454 1.454 0 0 0-1.393 2.551c9.984 5.449 15.944 14.242 15.944 23.521 0 8.55-3.417 14.863-11.079 20.47a1.47 1.47 0 0 0-.561.857L76.474 86.35h-5.361l-1.707-6.575c-.104-.397-.37-.733-.734-.923s-.794-.216-1.178-.074c-4.756 1.767-8.36 2.334-14.835 2.334-6.147 0-10.541-.432-16.143-2.708a1.454 1.454 0 0 0-1.96 1.01l-1.648 6.937h-5.314l-2.822-13.919a1.454 1.454 0 0 0-.612-.916C12.062 63.366 5.929 56.334 5.929 50.614v-5.487c0-2.355 1.667-4.271 3.715-4.271h6.453l.126-.001c.057-.001.109-.004.165.001a1.458 1.458 0 0 0 1.385-.7c2.09-3.49 5.119-6.635 9.002-9.347.389-.272.621-.717.621-1.191V17.537c5.183.541 8.835 3.921 10.238 7.274a1.454 1.454 0 0 0 2.681-1.121c-1.901-4.546-7.082-9.134-14.372-9.134-.803 0-1.453.65-1.453 1.453v12.86c-3.668 2.663-6.613 5.712-8.769 9.081H9.644c-3.651 0-6.621 3.22-6.621 7.177v5.487c0 9.841 13.759 19.425 19.018 22.978l2.94 14.5a1.452 1.452 0 0 0 1.424 1.164h7.651c.673 0 1.258-.462 1.414-1.117l1.529-6.437c5.311 1.929 9.722 2.315 15.66 2.315 5.476 0 9.365-.322 14.332-1.98l1.592 6.131a1.452 1.452 0 0 0 1.406 1.088h7.651c.681 0 1.271-.474 1.419-1.138l3-13.51c8.064-6.057 11.826-13.216 11.826-22.487 0-10.36-6.527-20.106-17.458-26.072z"/><path d="M47.67 30.172c.44.024.85-.153 1.14-.473 1.972-2.163 5.134-3.454 8.457-3.454 3.296 0 6.356 1.287 8.396 3.531a1.45 1.45 0 0 0 1.075.476l.059-.001c.43-.017.83-.224 1.093-.565a13.268 13.268 0 0 0 2.777-8.171c0-7.389-6.012-13.4-13.4-13.4s-13.4 6.011-13.4 13.4c0 2.945.938 5.741 2.712 8.083.26.343.66.554 1.091.574zm9.597-19.152c5.786 0 10.494 4.708 10.494 10.495a10.38 10.38 0 0 1-1.281 5.035c-2.491-2.058-5.756-3.211-9.212-3.211-3.505 0-6.784 1.124-9.255 3.13a10.411 10.411 0 0 1-1.239-4.955c-.001-5.786 4.706-10.494 10.493-10.494z"/></svg><svg viewBox="0 0 100.353 100.353" width="30" height="36" y="36"><path d="M32.286 42.441h-9.762a1.5 1.5 0 0 0-1.5 1.5v9.762a1.5 1.5 0 0 0 1.5 1.5h9.762a1.5 1.5 0 0 0 1.5-1.5v-9.762a1.5 1.5 0 0 0-1.5-1.5zm-1.5 9.762h-6.762v-6.762h6.762v6.762zm24.268-9.762h-9.762a1.5 1.5 0 0 0-1.5 1.5v9.762a1.5 1.5 0 0 0 1.5 1.5h9.762a1.5 1.5 0 0 0 1.5-1.5v-9.762a1.5 1.5 0 0 0-1.5-1.5zm-1.5 9.762h-6.762v-6.762h6.762v6.762zm23.566-9.762h-9.762a1.5 1.5 0 0 0-1.5 1.5v9.762a1.5 1.5 0 0 0 1.5 1.5h9.762a1.5 1.5 0 0 0 1.5-1.5v-9.762a1.5 1.5 0 0 0-1.5-1.5zm-1.5 9.762h-6.762v-6.762h6.762v6.762zM32.286 64.677h-9.762a1.5 1.5 0 0 0-1.5 1.5v9.762a1.5 1.5 0 0 0 1.5 1.5h9.762a1.5 1.5 0 0 0 1.5-1.5v-9.762a1.5 1.5 0 0 0-1.5-1.5zm-1.5 9.762h-6.762v-6.762h6.762v6.762zm24.268-9.762h-9.762a1.5 1.5 0 0 0-1.5 1.5v9.762a1.5 1.5 0 0 0 1.5 1.5h9.762a1.5 1.5 0 0 0 1.5-1.5v-9.762a1.5 1.5 0 0 0-1.5-1.5zm-1.5 9.762h-6.762v-6.762h6.762v6.762zm23.566-9.762h-9.762a1.5 1.5 0 0 0-1.5 1.5v9.762a1.5 1.5 0 0 0 1.5 1.5h9.762a1.5 1.5 0 0 0 1.5-1.5v-9.762a1.5 1.5 0 0 0-1.5-1.5zm-1.5 9.762h-6.762v-6.762h6.762v6.762z"/><path d="M89 13.394h-9.907c-.013 0-.024.003-.037.004V11.4c0-3.268-2.658-5.926-5.926-5.926s-5.926 2.659-5.926 5.926v1.994H56.041V11.4c0-3.268-2.658-5.926-5.926-5.926s-5.926 2.659-5.926 5.926v1.994H33.025V11.4c0-3.268-2.658-5.926-5.926-5.926s-5.926 2.659-5.926 5.926v1.995l-.015-.001h-9.905a1.5 1.5 0 0 0-1.5 1.5V92.64a1.5 1.5 0 0 0 1.5 1.5H89a1.5 1.5 0 0 0 1.5-1.5V14.894a1.5 1.5 0 0 0-1.5-1.5zM70.204 11.4c0-1.614 1.312-2.926 2.926-2.926s2.926 1.312 2.926 2.926v8.277c0 1.613-1.312 2.926-2.926 2.926s-2.926-1.312-2.926-2.926V11.4zM50.115 8.474a2.93 2.93 0 0 1 2.926 2.926v8.277a2.93 2.93 0 0 1-2.926 2.926 2.929 2.929 0 0 1-2.926-2.926v-4.643c.004-.047.014-.092.014-.141s-.01-.094-.014-.141V11.4a2.929 2.929 0 0 1 2.926-2.926zM24.173 11.4a2.929 2.929 0 0 1 2.926-2.926 2.93 2.93 0 0 1 2.926 2.926v8.277a2.93 2.93 0 0 1-2.926 2.926 2.929 2.929 0 0 1-2.926-2.926V11.4zM87.5 91.14H12.753V16.394h8.405l.015-.001v3.285c0 3.268 2.659 5.926 5.926 5.926s5.926-2.658 5.926-5.926v-3.283h11.164v3.283c0 3.268 2.659 5.926 5.926 5.926s5.926-2.658 5.926-5.926v-3.283h11.163v3.283c0 3.268 2.658 5.926 5.926 5.926s5.926-2.658 5.926-5.926V16.39c.013 0 .024.004.037.004H87.5V91.14z"/></svg><svg viewBox="0 0 100.4 100.4" width="30" height="36" y="72"><path d="M56.6 16.5v-4.4h4.1c.8 0 1.5-.7 1.5-1.5V3.4c0-.8-.7-1.5-1.5-1.5H43.2c-.8 0-1.5.7-1.5 1.5v7.2c0 .8.7 1.5 1.5 1.5h4.1v4.4c-9.7 1.1-18.3 5.6-24.8 12.2L20.8 27l2.8-2.8c.6-.6.6-1.5 0-2.1l-5.8-5.8c-.6-.6-1.5-.6-2.1 0L7.8 24c-.6.6-.6 1.5 0 2.1l5.8 5.8c.3.3.7.4 1.1.4s.8-.1 1.1-.4l2.9-2.9 1.9 1.9C14.6 38 11 47.2 11 57.2c0 22.6 18.4 41 41 41s41-18.4 41-41c-.1-21-16-38.4-36.4-40.7zM14.7 28.8L11 25l5.6-5.6 3.7 3.7-2.2 2.2-1.1 1.1-2.3 2.4zM48.8 9.1h-4.1V4.9h14.5v4.2h-4.1c-.8 0-1.5.7-1.5 1.5v5.7h-3.2v-5.7c-.1-.9-.8-1.5-1.6-1.5zm3.1 86.1c-20.9 0-38-17-38-38s17-38 38-38c.8 0 1.6 0 2.4.1.4 0 .8.1 1.2.1 19.3 1.8 34.4 18.1 34.4 37.8 0 21-17 38-38 38z"/><path d="M73.5 32.6l-.3-.3c-5.7-4.9-13.1-7.8-21.2-7.8-18.1 0-32.7 14.7-32.7 32.7S33.9 90 51.9 90s32.7-14.7 32.7-32.7c.1-9.9-4.3-18.7-11.1-24.7zM51.9 87c-16.4 0-29.7-13.3-29.7-29.7s13.3-29.7 29.7-29.7c6.9 0 13.2 2.4 18.2 6.3L53.9 52.5c-.6-.2-1.3-.4-1.9-.4-2.8 0-5.1 2.3-5.1 5.1s2.3 5.1 5.1 5.1 5-2.3 5-5.1c0-1-.3-2-.8-2.8l16.3-18.7c5.7 5.4 9.2 13 9.2 21.5C81.7 73.6 68.3 87 51.9 87zM54 57.2c0 1.2-.9 2.1-2.1 2.1s-2.1-.9-2.1-2.1c0-1.1.9-2.1 2.1-2.1s2.1 1 2.1 2.1z"/></svg><svg viewBox="0 0 100.5 100.5" width="30" height="36" y="108"><path d="M63.431 39.021l-16.88 18.908-8.566-8.565a1.5 1.5 0 1 0-2.121 2.121l9.688 9.688c.281.282.663.439 1.061.439l.042-.001a1.5 1.5 0 0 0 1.077-.5L65.67 41.019a1.5 1.5 0 1 0-2.239-1.998z"/><path d="M92.075 50c.028-.114.047-.232.047-.355 0-3.998-4.147-6.064-7.807-7.888-2.598-1.294-5.283-2.633-5.998-4.32-.728-1.722.3-4.528 1.292-7.243 1.384-3.783 2.814-7.694.175-10.331-2.588-2.588-6.372-1.712-10.033-.861-2.562.594-5.213 1.207-6.978.461-1.723-.729-3.155-2.989-4.54-5.177-2.009-3.169-4.284-6.762-8.233-6.762-3.956 0-6.188 3.671-8.156 6.911-1.366 2.249-2.779 4.573-4.5 5.301-1.759.745-4.438.07-7.028-.581-3.69-.926-7.505-1.888-10.099.709-2.621 2.62-1.351 6.551-.121 10.354.878 2.713 1.785 5.519 1.051 7.256-.716 1.694-3.282 3.021-5.765 4.305-3.517 1.818-7.504 3.879-7.504 7.868 0 .124.02.243.048.358a1.482 1.482 0 0 0-.047.355c0 3.989 3.987 6.05 7.505 7.868 2.481 1.283 5.048 2.61 5.764 4.304.734 1.737-.173 4.543-1.051 7.257-1.229 3.802-2.5 7.732.12 10.353 2.596 2.597 6.411 1.638 10.1.709 2.591-.65 5.271-1.323 7.029-.579 1.72.727 3.133 3.051 4.499 5.299 1.969 3.239 4.2 6.91 8.156 6.91 3.949 0 6.225-3.593 8.233-6.762 1.386-2.188 2.818-4.448 4.538-5.177 1.772-.748 4.418-.134 6.979.461 3.659.849 7.445 1.729 10.031-.86 2.642-2.638 1.211-6.55-.173-10.332-.993-2.715-2.02-5.521-1.293-7.241.716-1.688 3.401-3.027 5.999-4.321 3.659-1.823 7.807-3.89 7.807-7.888a1.463 1.463 0 0 0-.047-.361zm-9.097 5.56c-3.085 1.537-6.275 3.127-7.424 5.838-1.187 2.81.046 6.181 1.238 9.44 1.108 3.031 2.156 5.896.869 7.18-1.409 1.412-4.239.755-7.232.061-3.028-.702-6.159-1.429-8.825-.302-2.585 1.094-4.272 3.758-5.904 6.334-1.749 2.76-3.401 5.367-5.699 5.367-2.269 0-3.883-2.656-5.593-5.468-1.613-2.655-3.282-5.401-5.894-6.504-2.685-1.138-5.858-.34-8.93.433-3.01.755-5.853 1.473-7.246.079-1.323-1.322-.383-4.23.612-7.309 1.047-3.235 2.128-6.581.96-9.348-1.138-2.692-4.194-4.272-7.149-5.801-3.025-1.563-5.883-3.04-5.883-5.203 0-.124-.02-.243-.048-.359.028-.114.047-.232.047-.355 0-2.163 2.857-3.64 5.882-5.203 2.956-1.528 6.013-3.108 7.15-5.802 1.168-2.766.087-6.111-.96-9.347-.995-3.079-1.936-5.987-.611-7.31 1.39-1.393 4.233-.677 7.245.08 3.07.771 6.243 1.572 8.929.434 2.612-1.104 4.281-3.85 5.896-6.505 1.709-2.813 3.323-5.469 5.592-5.469 2.298 0 3.95 2.607 5.698 5.368 1.633 2.576 3.32 5.24 5.906 6.335 2.666 1.127 5.797.4 8.825-.303 2.993-.694 5.822-1.351 7.233.062 1.285 1.283.237 4.147-.871 7.179-1.192 3.26-2.425 6.631-1.237 9.442 1.147 2.71 4.338 4.3 7.423 5.837 3.16 1.574 6.145 3.062 6.145 5.202 0 .124.02.243.048.358a1.482 1.482 0 0 0-.047.355c0 2.143-2.985 3.63-6.145 5.204z"/></svg><svg viewBox="0 0 100.353 100.352" width="30" height="36" y="144"><path d="M69.55 58.903h-.016a1.502 1.502 0 0 1-1.273-.732L54.003 34.226a1.49 1.49 0 0 1-.103-.208 18.608 18.608 0 0 1-2.716-9.693c.018-10.311 8.414-18.689 18.72-18.689h.023a18.58 18.58 0 0 1 13.226 5.501 18.595 18.595 0 0 1 5.453 13.238c0 3.378-.934 6.705-2.704 9.642a1.442 1.442 0 0 1-.134.277L70.823 58.199a1.508 1.508 0 0 1-1.273.704zm-12.831-25.98l12.862 21.601 13.476-21.555c.034-.092.077-.182.13-.267 1.582-2.527 2.418-5.407 2.418-8.328v-.002a15.614 15.614 0 0 0-4.578-11.119 15.607 15.607 0 0 0-11.104-4.618h-.02c-8.655 0-15.705 7.035-15.719 15.692 0 2.954.831 5.836 2.402 8.332.054.083.098.172.133.264z"/><path d="M69.909 31.352h-.016a7.857 7.857 0 0 1-5.596-2.323 7.868 7.868 0 0 1-2.315-5.611 7.86 7.86 0 0 1 2.326-5.593 7.873 7.873 0 0 1 5.595-2.312h.008c4.365.005 7.914 3.563 7.91 7.932a7.864 7.864 0 0 1-2.326 5.597 7.862 7.862 0 0 1-5.586 2.31zm-.007-12.839a4.89 4.89 0 0 0-3.476 1.437 4.878 4.878 0 0 0-1.444 3.473 4.893 4.893 0 0 0 1.439 3.487 4.878 4.878 0 0 0 3.475 1.442h.01a4.882 4.882 0 0 0 3.471-1.434 4.88 4.88 0 0 0 1.444-3.475 4.929 4.929 0 0 0-4.914-4.929l-.005-.001zm6.419 4.931h.01-.01zm18.078 56.737H4.541a1.5 1.5 0 0 1-1.379-2.09l16.345-38.242a1.501 1.501 0 0 1 1.379-.911h38.568a1.5 1.5 0 1 1 0 3H21.876L6.813 77.18h85.313L77.528 43.03a1.5 1.5 0 1 1 2.759-1.179L95.778 78.09a1.502 1.502 0 0 1-1.379 2.091z"/><path d="M69.727 79.912a1.5 1.5 0 0 1-1.488-1.33c-.009-.074-.967-7.454-11.3-9.207-.961-.163-2.494-.312-4.27-.483-9.779-.946-18.699-2.174-20.419-6.747-1.11-2.95.512-5.199 1.814-7.006 1.426-1.978 1.896-2.842 1.168-4.083-.461-.786-1.929-1.426-3.349-2.045-2.78-1.212-6.588-2.872-6.608-7.422a1.5 1.5 0 0 1 1.493-1.507h.007a1.5 1.5 0 0 1 1.5 1.493c.011 2.42 1.824 3.385 4.808 4.686 1.86.811 3.783 1.649 4.738 3.278 1.785 3.044-.011 5.536-1.322 7.355-1.23 1.706-1.958 2.821-1.44 4.195 1.205 3.203 12.481 4.293 17.9 4.818 1.833.177 3.416.33 4.482.511 12.532 2.127 13.734 11.43 13.779 11.825a1.5 1.5 0 0 1-1.493 1.669z"/></svg><svg viewBox="0 0 100.354 100.352" width="30" height="36" y="180"><path d="M16.06 8.94v82.93h66.102V8.94H16.06zm63.101 79.93H19.059V11.94h60.102v76.93z"/><path d="M58.666 61.937a11.64 11.64 0 0 0 2.168-6.766c0-6.465-5.259-11.725-11.723-11.725s-11.724 5.26-11.724 11.725c0 2.522.809 4.854 2.17 6.768l-7.639 10.932a1.502 1.502 0 0 0-.018 1.693c.343.513.966.762 1.57.631l5.838-1.29 1.06 5.456a1.5 1.5 0 0 0 2.797.418l5.945-11.192 5.948 11.192a1.5 1.5 0 0 0 2.797-.418l1.062-5.456 5.83 1.289a1.503 1.503 0 0 0 1.571-.631 1.503 1.503 0 0 0-.017-1.693l-7.635-10.933zM49.11 46.446c4.81 0 8.723 3.914 8.723 8.725 0 4.808-3.913 8.719-8.723 8.719s-8.724-3.911-8.724-8.719c.001-4.81 3.914-8.725 8.724-8.725zm-6.605 28.182l-.544-2.805a1.503 1.503 0 0 0-1.795-1.179l-3.584.792 5.06-7.241a11.69 11.69 0 0 0 5.103 2.454l-4.24 7.979zm15.558-3.983a1.5 1.5 0 0 0-1.795 1.178l-.547 2.809-4.242-7.982a11.687 11.687 0 0 0 5.103-2.455l5.057 7.242-3.576-.792zM31.258 31.076h35.244a1.5 1.5 0 1 0 0-3H31.258a1.5 1.5 0 1 0 0 3z"/></svg><svg viewBox="0 0 100.353 100.352" width="30" height="36" y="216"><path d="M41.76 45.383c-7.691 0-13.949 6.258-13.949 13.949S34.068 73.28 41.76 73.28s13.949-6.257 13.949-13.948-6.258-13.949-13.949-13.949zm0 24.898c-6.037 0-10.949-4.911-10.949-10.948s4.912-10.949 10.949-10.949c6.038 0 10.949 4.912 10.949 10.949S47.797 70.281 41.76 70.281zM12.399 45.384a1.5 1.5 0 0 0-1.5 1.5V71.78a1.5 1.5 0 1 0 3 0V46.884a1.5 1.5 0 0 0-1.5-1.5zm58.249 0a1.5 1.5 0 0 0-1.5 1.5V71.78a1.5 1.5 0 0 0 3 0V46.884a1.5 1.5 0 0 0-1.5-1.5z"/><path d="M95.287 19.142H21.869a1.5 1.5 0 0 0-1.5 1.5v7.419h-6.72a1.5 1.5 0 0 0-1.5 1.5v8.248H4.714a1.5 1.5 0 0 0-1.5 1.5v40.047a1.5 1.5 0 0 0 1.5 1.5h73.419a1.5 1.5 0 0 0 1.5-1.5v-8.248h7.436a1.5 1.5 0 0 0 1.5-1.5v-7.419h6.719a1.5 1.5 0 0 0 1.5-1.5V20.642a1.501 1.501 0 0 0-1.501-1.5zM6.214 77.856V40.809h70.419v28.789l-.001.01.001.01v8.238H6.214zm79.354-9.748h-5.936V39.309a1.5 1.5 0 0 0-1.5-1.5H15.149v-6.748h70.419v37.047zm8.219-8.919h-5.219V29.561a1.5 1.5 0 0 0-1.5-1.5H23.369v-5.919h70.418v37.047z"/></svg><svg viewBox="0 0 100.75 100.75" width="30" height="36" y="252"><path d="M90.298 49.014c2.29-1.474 3.795-3.915 3.795-6.676 0-4.478-3.971-8.12-8.852-8.12H61.655c1.115-2.09 2.244-5.515 1.986-10.615-.507-10.455-6.851-15.879-10.52-17.436-2.164-.918-4.519-.7-6.298.583-1.786 1.288-3.802 4.246-3.263 11.026.558 7.046-8.411 14.689-12.781 17.973v-2.682a1.5 1.5 0 0 0-1.5-1.5H9.416a1.5 1.5 0 0 0-1.5 1.5v54.182a1.5 1.5 0 0 0 1.5 1.5h19.863a1.5 1.5 0 0 0 1.5-1.5v-2.737c5.654 2.033 21.553 7.511 29.41 7.768l15.777.11c4.875 0 8.841-3.805 8.841-8.481 0-2.153-.844-4.115-2.223-5.614 4.208-.655 7.434-4.148 7.434-8.359 0-2.243-.921-4.28-2.411-5.798 3.735-.996 6.487-4.278 6.487-8.172-.001-2.876-1.505-5.418-3.796-6.952zM10.916 85.748V34.566h16.863v4.02c-.002.04-.001.08 0 .12V82.34c-.001.041-.003.082 0 .123v3.286H10.916zm74.325-24.294h-7.689l-.01.001h-1.576a1.5 1.5 0 0 0 0 3h5.195c3.229 0 5.856 2.459 5.856 5.48 0 3.021-2.627 5.479-5.856 5.479h-5.175l-.02-.001h-5.514a1.5 1.5 0 0 0 0 3h5.504l.01.001h.02c3.211.011 5.82 2.47 5.82 5.494 0 3.022-2.62 5.481-5.83 5.481l-15.728-.109c-7.822-.257-25.169-6.397-29.469-7.961V39.456c3.249-2.235 16.556-12.025 15.771-21.917-.334-4.205.386-7.172 2.027-8.355 1.365-.983 2.926-.442 3.373-.254 3.024 1.284 8.26 5.85 8.695 14.823.395 7.798-2.763 10.715-2.884 10.823a1.5 1.5 0 0 0 .971 2.643H85.24c3.227 0 5.852 2.297 5.852 5.12 0 2.837-2.625 5.146-5.852 5.146h-6.413a1.5 1.5 0 1 0 0 3h6.413c3.227 0 5.852 2.458 5.852 5.481.001 3.025-2.624 5.488-5.851 5.488z"/></svg></svg>