<svg width="110" height="530" viewBox="0 0 110 530"  xmlns="http://www.w3.org/2000/svg"><svg style="fill: #222222;" width="30" height="30" x="10" y="10" id="icongallery" viewBox="0 0 1024 1024"><path d="M409.6 411.733a2.133 2.133 0 002.133-2.133V204.8a2.133 2.133 0 00-2.133-2.133H204.8a2.133 2.133 0 00-2.133 2.133v204.8c0 1.152.981 2.133 2.133 2.133h204.8zm0 64H204.8a66.133 66.133 0 01-66.133-66.133V204.8c0-36.523 29.61-66.133 66.133-66.133h204.8c36.523 0 66.133 29.61 66.133 66.133v204.8a66.133 66.133 0 01-66.133 66.133zm409.6-64a2.133 2.133 0 002.133-2.133V204.8a2.133 2.133 0 00-2.133-2.133H614.4a2.133 2.133 0 00-2.133 2.133v204.8c0 1.152.981 2.133 2.133 2.133h204.8zm0 64H614.4a66.133 66.133 0 01-66.133-66.133V204.8c0-36.523 29.61-66.133 66.133-66.133h204.8c36.523 0 66.133 29.61 66.133 66.133v204.8a66.133 66.133 0 01-66.133 66.133zm-409.6 345.6a2.133 2.133 0 002.133-2.133V614.4a2.133 2.133 0 00-2.133-2.133H204.8a2.133 2.133 0 00-2.133 2.133v204.8c0 1.152.981 2.133 2.133 2.133h204.8zm0 64H204.8a66.133 66.133 0 01-66.133-66.133V614.4c0-36.523 29.61-66.133 66.133-66.133h204.8c36.523 0 66.133 29.61 66.133 66.133v204.8a66.133 66.133 0 01-66.133 66.133zm409.6-64a2.133 2.133 0 002.133-2.133V614.4a2.133 2.133 0 00-2.133-2.133H614.4a2.133 2.133 0 00-2.133 2.133v204.8c0 1.152.981 2.133 2.133 2.133h204.8zm0 64H614.4a66.133 66.133 0 01-66.133-66.133V614.4c0-36.523 29.61-66.133 66.133-66.133h204.8c36.523 0 66.133 29.61 66.133 66.133v204.8a66.133 66.133 0 01-66.133 66.133z" fill="#444"/></svg>
<svg style="fill: #222222;" width="30" height="30" x="10" y="50" id="iconlist" viewBox="0 0 1024 1024"><path d="M128 236.8v-64h768v64zm0 307.2v-64h768v64zm0 307.2v-64h768v64z" fill="#444" stroke="2"/></svg>
<svg style="fill: #222222;" width="30" height="30" x="10" y="90" id="hist" viewBox="0 0 651.13 651.13"><path d="M275.531 172.228l-.05 120.493c0 4.575 1.816 8.948 5.046 12.177l86.198 86.181 24.354-24.354-81.153-81.136.05-113.361z"/><path d="M310.011 34.445c-121.23 0-221.563 90.033-238.367 206.674H0l86.114 86.114 86.114-86.114h-65.78C122.925 143.53 207.803 68.891 310.011 68.891c113.966 0 206.674 92.707 206.674 206.674s-92.707 206.674-206.674 206.674c-64.064 0-123.469-28.996-162.978-79.555l-27.146 21.192c46.084 58.968 115.379 92.808 190.124 92.808 132.955 0 241.119-108.181 241.119-241.119S442.966 34.446 310.011 34.445z"/></svg>
<svg style="fill: #222222;" width="30" height="30" x="10" y="130" id="zoom" viewBox="0 0 20 20"><path d="M15.5 14h-.79l-.28-.27A6.471 6.471 0 0016 9.5 6.5 6.5 0 109.5 16c1.61 0 3.09-.59 4.23-1.57l.27.28v.79l5 4.99L20.49 19l-4.99-5zm-6 0C7.01 14 5 11.99 5 9.5S7.01 5 9.5 5 14 7.01 14 9.5 11.99 14 9.5 14z"/></svg>
<svg style="fill: #222222;" width="30" height="30" x="10" y="170" id="action" viewBox="0 0 512.035 512.035"><path d="M488.502 256.035l22.464-58.592c2.464-6.464.544-13.792-4.864-18.176l-48.704-39.488-9.856-61.984c-1.088-6.848-6.464-12.192-13.312-13.28l-61.984-9.856L332.79 5.923c-4.352-5.408-11.84-7.328-18.144-4.864l-58.624 22.496L197.43 1.091c-6.496-2.496-13.76-.512-18.144 4.864l-39.488 48.736-61.984 9.856a16.033 16.033 0 00-13.28 13.28l-9.856 61.984-48.736 39.488c-5.376 4.352-7.328 11.68-4.864 18.144l22.464 58.592-22.464 58.592c-2.496 6.464-.512 13.792 4.864 18.144l48.736 39.456 9.856 61.984c1.088 6.848 6.432 12.224 13.28 13.312l61.984 9.856 39.488 48.704a15.923 15.923 0 0018.176 4.864l58.56-22.432 58.592 22.464a16.066 16.066 0 005.728 1.056c4.704 0 9.344-2.08 12.448-5.952l39.456-48.704 61.984-9.856a16.03 16.03 0 0013.312-13.312l9.856-61.984 48.704-39.456c5.408-4.384 7.328-11.68 4.864-18.144l-22.464-58.592z" fill="#f44336"/><g fill="#fafafa"><path d="M208.022 224.035c-26.464 0-48-21.536-48-48s21.536-48 48-48 48 21.536 48 48-21.536 48-48 48zm0-64c-8.832 0-16 7.168-16 16s7.168 16 16 16 16-7.168 16-16-7.168-16-16-16zM304.022 384.035c-26.464 0-48-21.536-48-48s21.536-48 48-48 48 21.536 48 48-21.536 48-48 48zm0-64c-8.8 0-16 7.2-16 16s7.2 16 16 16 16-7.2 16-16-7.2-16-16-16zM176.022 384.035c-3.232 0-6.464-.96-9.28-2.976-7.2-5.152-8.864-15.136-3.712-22.336l160-224c5.152-7.2 15.136-8.864 22.336-3.712 7.2 5.12 8.832 15.136 3.712 22.304l-160 224c-3.168 4.384-8.064 6.72-13.056 6.72z"/></g></svg>
<svg style="fill: #222222;" width="30" height="30" x="10" y="210" id="subs_icon" viewBox="0 0 30 40"><path d="M1.057 1.046a.178.178 0 00-.047.19l8.842 24.188c.024.064.083.11.152.115a.187.187 0 00.17-.094l3.836-7.18a.168.168 0 00.01-.142l-1.69-4.633 4.442 2.144a.178.178 0 00.145.003l7.523-3.11a.173.173 0 00.107-.154v-.003a.17.17 0 00-.1-.164L1.252 1.016a.179.179 0 00-.193.03z" stroke-width="2" stroke="#1942a0" fill="#fffbf3" fill-rule="evenodd" stroke-linecap="round" stroke-linejoin="round"/></svg>
<svg style="fill: #222222;" width="30" height="30" x="10" y="250" id="top_menu" viewBox="0 0 231 231"><g fill="#606060"><path d="M0 164.5h195.5v33H0zM0 99.5h195.5v33H0zM0 32.5h195.5v33H0z"/></g></svg>
<svg style="fill: #222222;" width="30" height="30" x="10" y="290" id="geo" viewBox="0 0 14 14"><path d="M8.7 7c-1 0-1.8-.8-1.8-1.8s.8-1.8 1.8-1.8 1.8.8 1.8 1.8S9.7 7 8.7 7m0-4.4C7.2 2.6 6 3.8 6 5.2s1.2 2.6 2.7 2.6 2.7-1.2 2.7-2.6-1.2-2.6-2.7-2.6m0 10.3C7.6 11.8 4.3 8 4.3 5.3c0-2.4 2-4.4 4.4-4.4s4.4 2 4.4 4.4c0 2.7-3.3 6.5-4.4 7.6M8.7 0C5.8 0 3.4 2.4 3.4 5.2c0 3.6 4.8 8.4 5 8.6.2.2.4.2.6.1.2-.2 5-5 5-8.6C14 2.4 11.6 0 8.7 0" fill="#fba000"/></svg>
<svg style="fill: #222222;" width="30" height="30" x="10" y="330" id="fav" viewBox="0 0 40 40"><path fill="#444" transform="translate(0 -8)" d="M14.526 9.5c2.21 0 3.895 1.7 3.895 3.9 0 3-3.053 5.8-8.105 10.2l-.21.2-.211-.2c-5.263-4.4-8.316-7.2-8.316-10.2 0-2.2 1.684-3.9 3.895-3.9C6.737 9.5 8 10 8.737 11l1.158 1.4 1.263-1.4c.947-.9 2.105-1.5 3.368-1.5zm0-1.5c-1.79 0-3.368.9-4.526 2.1C8.842 8.7 7.263 8 5.474 8 2.42 8 0 10.3 0 13.4c0 3.7 3.368 6.7 8.632 11.3L10 26l1.368-1.3C16.632 20.2 20 17.1 20 13.4c0-3.1-2.421-5.4-5.474-5.4z"/></svg>
<svg style="fill: #222222;" width="30" height="30" x="10" y="370" id="key" viewBox="-30 -30 542 542"><path d="M300.191 304.617c-1.074 90.68-162.964 111.883-179.992 1.184 7.004-1.473 12.504-4.512 17.028-8.535 5.07-4.532 8.882-10.34 12.128-16.645 2.09 1.774 62.348-17.828 65.852-16.976 14.434 3.511 56.54 19.601 60.055 16.585 4.347 8.516 9.683 16.137 17.687 21.02a36.14 36.14 0 007.242 3.367zm0 0" fill="#fcc368" fill-rule="evenodd"/><path d="M352.445 149.887a7.787 7.787 0 01-7.773-7.434c-2.137-47.047-24.973-86.746-62.652-108.918-39.356-23.16-89.047-23.969-132.922-2.168-42.883 21.281-67.57 60.703-69.512 111.004-.164 4.297-7.934 49.203-12.191 49.031-4.297-.164-3.54-45.332-3.372-49.629 1.125-29.117 9.137-55.043 23.82-77.058 13.255-19.875 32.04-36.227 54.329-47.29 48.601-24.152 103.84-23.148 147.75 2.696 42.3 24.89 67.93 69.223 70.308 121.629.196 4.297-1.171 29.05-.02 37.168.02.117-7.644-29.031-7.765-29.031zm0 0" fill="gray"/><g fill-rule="evenodd"><path d="M78 142.043c-8.23 3.66-14.047 11.957-14.047 21.55v15.59c0 12.958 10.594 23.555 23.578 23.555h17.442c-.09-1.472 26.382-31.304 26.382-31.304l-26.53-31.399H87.53c-3.394 0-6.61.707-9.531 2.008zm268.168-.266c8.262 3.692 14.047 11.989 14.047 21.551v15.59c0 12.96-10.594 23.559-23.547 23.559h-17.473c.09-1.477-24.03-31.356-24.03-31.356l24.179-31.351h17.32c3.363 0 6.582.71 9.504 2.007zm0 0" fill="#00f"/><path d="M106.504 213.457c5.578 25.89 24.433 53.64 49.277 72.3 9.149 6.907 19.153 12.575 29.57 16.442 19.473 7.235 34.137 7.203 53.587-.058 8.851-3.278 17.41-7.883 25.375-13.43 26.851-18.602 47.48-47.977 53.351-75.254 1.09-5.137 1.68-10.215 1.68-15.113v-58.309l-107.258-38.847-107.262 38.847v58.309c0 4.898.59 9.976 1.68 15.113zm0 0" fill="#ffdda6"/><path d="M161.3 55.93c-32.19 14.14-56.476 42.363-56.476 84.105 93.688-25.27 86.074 48.86 214.52 0 0-85.316-94.485-112.062-158.043-84.105zm0 0" fill="gray"/><path d="M22.262 370.867L1.016 460.793C-4.828 485.617 15.504 501 37.69 501h349.43c22.191 0 42.524-15.383 36.652-40.207l-21.218-89.926c-10.828-45.847-41.075-61.789-89.524-64.062-4.812-.149-9.058-.914-12.836-2.184-3.011 8.383-7.851 15.645-14.015 21.785-40.102 39.766-137.243 32.653-165.985-20.605-2.593.562-5.398.914-8.437 1.004-48.422 2.273-78.668 18.215-89.496 64.062zm0 0" fill="#64b0d9"/><path d="M275.262 280.234c-.004 0-.004 0 0 0v-.004c-3.516 3.016-7.172 5.88-10.953 8.477-7.965 5.55-16.524 10.152-25.375 13.438-15.637 5.84-28.176 6.992-42.61 3.48-3.504-.855-7.14-2.008-10.972-3.43-10.418-3.86-20.418-9.535-29.57-16.433-2.216-1.63-4.337-3.367-6.427-5.14-3.246 6.304-7.058 12.112-12.128 16.644a159.158 159.158 0 0013.683 9.71c10.86 6.91 22.719 12.575 35.078 16.446 23.11 7.23 40.5 7.2 63.578-.063 4.793-1.496 10.914-6.296 19.446-1.117 3.648 2.219 8.027 3.781 13.3 3.957 1.297.059 2.567.117 3.868.207 6.164-6.14 11.004-13.402 14.015-21.785-12.246-4.133-19.386-13.523-24.933-24.387zm0 0" fill="#eda93b"/></g><path d="M156.371 204.355c-1.828 0-3.66-.64-5.14-1.94a7.776 7.776 0 01-.704-10.985c6.067-6.895 16.817-7.653 21.16-7.66 4.403.02 15.145.726 21.266 7.64a7.788 7.788 0 11-11.668 10.32c-.851-.964-4.472-2.39-9.539-2.39h-.039c-5.055.008-8.648 1.422-9.488 2.37a7.764 7.764 0 01-5.848 2.645zm78.016 0c-1.825 0-3.66-.64-5.14-1.94a7.78 7.78 0 01-.704-10.985c6.066-6.895 16.82-7.653 21.16-7.66h.055c4.39 0 15.117.753 21.215 7.64a7.788 7.788 0 01-.676 10.992c-3.223 2.848-8.145 2.547-10.992-.672-.856-.964-4.477-2.39-9.543-2.39h-.035c-5.055.008-8.653 1.422-9.489 2.37a7.766 7.766 0 01-5.851 2.645zm0 0" fill="gray"/></svg>
<svg style="fill: #222222;" width="30" height="30" x="10" y="410" id="card" viewBox="0 0 510 510"><path fill="#222" d="M153 408c-28.05 0-51 22.95-51 51s22.95 51 51 51 51-22.95 51-51-22.95-51-51-51zM0 0v51h51l91.8 193.8-35.7 61.2c-2.55 7.65-5.1 17.85-5.1 25.5 0 28.05 22.95 51 51 51h306v-51H163.2c-2.55 0-5.1-2.55-5.1-5.1v-2.551l22.95-43.35h188.7c20.4 0 35.7-10.2 43.35-25.5L504.9 89.25c5.1-5.1 5.1-7.65 5.1-12.75 0-15.3-10.2-25.5-25.5-25.5H107.1L84.15 0H0zm408 408c-28.05 0-51 22.95-51 51s22.95 51 51 51 51-22.95 51-51-22.95-51-51-51z"/></svg>
<svg style="fill: #222222;" width="30" height="30" x="10" y="450" id="phone" viewBox="-1 -1 22 19"><path fill="none" d="M0 0h20v17H0z"/><path d="M15.646 12.26c.112-.135.096-.301-.015-.392l-2.799-2.287a.266.266 0 00-.356.022l-1.268 1.269a.863.863 0 01-1.046.136 8.847 8.847 0 01-1.807-1.363 8.843 8.843 0 01-1.363-1.807.863.863 0 01.136-1.046l1.269-1.268a.266.266 0 00.022-.356l-2.287-2.8c-.119-.12-.287-.12-.392-.014L4.545 3.55c-.949.949.483 4.864 2.763 7.144 2.279 2.279 6.195 3.71 7.143 2.762l1.195-1.195zm-5.112-2.516l1.041-1.042a1.54 1.54 0 012.064-.107l2.799 2.286a1.538 1.538 0 01.109 2.28l-1.195 1.195c-1.635 1.635-6.228-.045-8.945-2.762-2.718-2.718-4.398-7.311-2.763-8.946L4.84 1.453a1.54 1.54 0 012.28.11L9.405 4.36a1.54 1.54 0 01-.107 2.063L8.257 7.466c.314.501.648.927.999 1.278s.777.685 1.278 1z" fill="#b3b3b3"/></svg>
<svg style="fill: #222222;" width="30" height="30" x="10" y="490" id="news" viewBox="0 0 512 512"><path d="M256.315 483.159c-19.555 0-36.228-12.541-42.42-30h84.84c-6.192 17.459-22.865 30-42.42 30zm-177.67-60c34.161-45.792 52.67-101.208 52.67-159.138v-47.862c0-68.925 56.075-125 125-125s125 56.075 125 125v47.862c0 57.93 18.509 113.346 52.671 159.138H78.645z" fill="#fff"/><path d="M411 262.862V215c0-69.822-46.411-129.001-110-148.33V45c0-24.813-20.187-45-45-45s-45 20.187-45 45v21.67C147.41 85.999 101 145.177 101 215v47.862c0 61.332-23.378 119.488-65.827 163.756A14.999 14.999 0 0046 452h136.509c6.968 34.192 37.272 60 73.491 60 36.22 0 66.522-25.808 73.491-60H466a15 15 0 0010.827-25.382C434.378 382.35 411 324.193 411 262.862zM241 45c0-8.271 6.729-15 15-15s15 6.729 15 15v15.728c-4.937-.476-9.94-.728-15-.728s-10.063.252-15 .728zm15 437c-19.555 0-36.228-12.541-42.42-30h84.84c-6.192 17.459-22.865 30-42.42 30zM78.33 422C112.491 376.208 131 320.792 131 262.862V215c0-68.925 56.075-125 125-125s125 56.075 125 125v47.862c0 57.93 18.509 113.346 52.671 159.138z" stroke="#000" stroke-width="5"/><path d="M451 215c0 8.284 6.716 15 15 15s15-6.716 15-15c0-60.1-23.404-116.603-65.901-159.1-5.857-5.857-15.355-5.858-21.213 0s-5.858 15.355 0 21.213C430.717 113.944 451 162.913 451 215zM46 230c8.284 0 15-6.716 15-15 0-52.086 20.284-101.055 57.114-137.886 5.858-5.858 5.858-15.355 0-21.213-5.857-5.858-15.355-5.858-21.213 0C54.404 98.398 31 154.9 31 215c0 8.284 6.716 15 15 15z"/></svg>


</svg>