<svg width="110" height="1050" viewBox="0 0 110 1050"  xmlns="http://www.w3.org/2000/svg"><svg style="fill: #222222;" width="30" height="30" x="10" y="10" id="click_fast" viewBox="0 0 912.002 912.002"><path d="M605.969 6.035a20.598 20.598 0 00-22.71-4.353L12.453 247.427a20.6 20.6 0 002.913 38.841l245.812 64.557 64.557 245.81a20.598 20.598 0 0038.84 2.912l245.746-570.8a20.597 20.597 0 00-4.352-22.712zm-255.58 522.289l-52.418-199.596a20.601 20.601 0 00-14.692-14.692L83.68 261.615 552.022 59.98 350.389 528.324z"/></svg>
<svg style="fill: #222222;" width="30" height="30" x="10" y="50" id="like" viewBox="0 0 489.8 489.8"><path id="XMLID_595_" d="M143.2 475H73c-2.1 0-3.9-1.8-3.9-3.9v-184c0-2.1 1.8-3.9 3.9-3.9h70.2c2.1 0 3.9 1.8 3.9 3.9v184c0 2.1-1.7 3.9-3.9 3.9z" fill="#3c92ca"/><path d="M247.1 9.1v79.2c0 5 4.1 9.1 9.1 9.1s9.1-4.1 9.1-9.1V9.1c0-5-4.1-9.1-9.1-9.1-5.1 0-9.1 4.1-9.1 9.1zM420.7 178h-79.2c-5 0-9.1 4.1-9.1 9.1s4.1 9.1 9.1 9.1h79.2c5 0 9.1-4.1 9.1-9.1s-4.1-9.1-9.1-9.1zM82.5 187.1c0 5 4.1 9.1 9.1 9.1h79.2c5 0 9.1-4.1 9.1-9.1s-4.1-9.1-9.1-9.1H91.6c-5 0-9.1 4.1-9.1 9.1zM131.7 60.9c1.7-1.7 2.7-4 2.7-6.4s-1-4.7-2.7-6.4-4-2.7-6.4-2.7-4.7 1-6.4 2.7c-1.7 1.7-2.7 4-2.7 6.4s1 4.7 2.7 6.4 4 2.7 6.4 2.7 4.7-1 6.4-2.7zM156.2 85.4c-3.5 3.5-3.5 9.3 0 12.8 1.8 1.8 4.1 2.7 6.4 2.7s4.7-.9 6.4-2.7c3.5-3.5 3.5-9.3 0-12.8s-9.3-3.5-12.8 0zM150.4 79.6c3.5-3.5 3.5-9.3 0-12.8s-9.3-3.5-12.8 0-3.5 9.3 0 12.8c1.8 1.8 4.1 2.6 6.4 2.6 2.3.1 4.6-.8 6.4-2.6zM174.9 104.1c-1.7 1.7-2.6 4-2.6 6.4s1 4.7 2.7 6.4c1.7 1.7 4 2.7 6.4 2.7s4.7-1 6.4-2.7 2.7-4 2.7-6.4-1-4.7-2.7-6.4c-1.7-1.7-4-2.7-6.4-2.7-2.5 0-4.9 1-6.5 2.7zM372.1 53.9c-1.7 1.7-2.7 4-2.7 6.4s1 4.7 2.7 6.4c1.7 1.7 4 2.7 6.4 2.7s4.7-1 6.4-2.7c1.7-1.7 2.6-4 2.6-6.4s-1-4.7-2.6-6.4c-1.7-1.7-4-2.6-6.4-2.6-2.3-.1-4.7.9-6.4 2.6zM341.2 106.6c2.3 0 4.6-.9 6.4-2.6 3.5-3.5 3.5-9.3 0-12.8s-9.3-3.5-12.8 0-3.5 9.3 0 12.8c1.8 1.8 4.1 2.6 6.4 2.6zM353.5 72.5c-3.5 3.5-3.5 9.3 0 12.8 1.8 1.8 4.1 2.7 6.4 2.7s4.6-.9 6.4-2.7c3.5-3.5 3.5-9.3 0-12.8s-9.3-3.5-12.8 0zM313.5 116.3c0 2.4 1 4.7 2.7 6.4s4 2.7 6.4 2.7 4.7-1 6.4-2.7c1.7-1.7 2.7-4 2.7-6.4s-1-4.7-2.7-6.4c-1.7-1.7-4-2.6-6.4-2.6s-4.7 1-6.4 2.6c-1.7 1.6-2.7 4-2.7 6.4z"/><path d="M428.2 304.2c0-28.2-22.9-51.1-51.1-51.1h-79.4v-57.3c0-24.1-7-41.5-21-51.7-22-16.2-52.3-6.9-53.5-6.5-3.8 1.2-6.3 4.7-6.3 8.6v64.2c0 50.6-58.7 67.9-61.2 68.6-1.2.3-2.2.9-3.1 1.6-3.1-3.9-7.9-6.4-13.2-6.4H76.9c-9.3 0-16.9 7.6-16.9 16.9v176.1c0 9.3 7.6 16.9 16.9 16.9h62.3c6.2 0 11.7-3.4 14.6-8.5 9.2 8.8 21.6 14.2 35.3 14.2h157c34.7 0 56.8-18.2 60.7-49.9l21.1-134.3c.2-.4.3-.9.3-1.4zM138.1 465.9H78.2V292.3h59.9v173.6zM389 437.3v.3c-2.8 22.6-17.2 34.1-42.8 34.1h-157c-18.2 0-33-14.8-33-33V296.5c1.4.3 2.9.3 4.3-.1 3-.8 74.4-21.6 74.4-86v-56.9c7.8-1.2 21.3-1.9 31 5.2 9 6.6 13.6 19.1 13.6 37.1v66.4c0 5 4.1 9.1 9.1 9.1h88.5c18 0 32.6 14.4 33 32.3L389 437.3z"/></svg>
<svg style="fill: #222222;" width="30" height="30" x="10" y="90" id="inStock" viewBox="0 0 32 32"><g fill="#FFF" stroke="#5BA030" stroke-width="1.5" stroke-linecap="round" stroke-linejoin="round" stroke-miterlimit="10"><circle cx="16.226" cy="16" r="12.354"/><path d="M12.38 15.584l3.054 3.331 5.83-6.247"/></g></svg>
<svg style="fill: #222222;" width="30" height="30" x="10" y="130" id="visa" viewBox="0 0 46 16"><mask id="visa_b" fill="#fff"><path d="M0 0h45.931v15.11H0"/></mask><g fill="none" fill-rule="evenodd"><path fill="#1457B0" d="M30.413 0c.47.208.989.155 1.478.276.498.123 1.14.1 1.443.445.32.366-.06.956-.116 1.45-.048.428-.163.85-.202 1.28-.03.337-.145.312-.402.208-1.11-.45-2.262-.634-3.457-.464-.017.003-.034.003-.05.005-.773.11-1.306.47-1.38.956-.108.704.412 1.01.89 1.305.704.436 1.448.808 2.151 1.247.95.592 1.747 1.33 2.039 2.474.418 1.639-.241 3.36-1.699 4.429-1.201.88-2.577 1.26-4.037 1.397-.118.01-.273-.07-.348.101h-.598c-.574-.215-1.191-.153-1.78-.286-.583-.13-1.162-.269-1.722-.478-.182-.067-.338-.124-.293-.377.174-.977.339-1.957.51-2.957a7.057 7.057 0 004.492.903c.416-.052.814-.162 1.165-.4.595-.4.697-1.084.245-1.641-.311-.383-.733-.621-1.154-.856-.666-.373-1.346-.716-1.989-1.132-2.727-1.765-1.887-5.035-.242-6.295C26.563.666 27.947.284 29.415.108c.135-.017.306.071.4-.108h.598z"/><path fill="#F4B103" d="M4.075 2.377C2.808 1.595 1.483.955 0 .7V.4C2.006.4 4.012.397 6.018.401c1.15.002 1.71.46 1.933 1.582.335 1.677.665 3.356.994 5.034.032.162.076.326.019.492-.184-.089-.21-.287-.295-.441-1.097-1.993-2.612-3.572-4.594-4.69"/><path fill="#1457B0" d="M4.075 2.377c1.982 1.119 3.497 2.698 4.594 4.69.085.155.11.353.295.442l.558 2.735c.407-1.122.774-2.133 1.139-3.145.76-2.111 1.526-4.22 2.272-6.337.11-.311.238-.446.591-.437 1.046.028 2.093.018 3.14.006.32-.004.459.022.3.405a3358.43 3358.43 0 00-5.673 13.736c-.1.243-.227.318-.478.316a149.98 149.98 0 00-3.19-.001c-.252.003-.38-.058-.45-.33-1.019-3.962-2.05-7.921-3.077-11.881-.016-.064-.015-.132-.021-.199M18.08 14.782c-.499 0-.997-.01-1.495.005-.258.007-.352-.056-.305-.34.61-3.71 1.211-7.422 1.815-11.133.142-.87.304-1.738.422-2.612.041-.306.163-.376.444-.372.98.014 1.96.014 2.94 0 .312-.004.423.035.361.41-.638 3.84-1.253 7.685-1.874 11.528-.115.706-.25 1.41-.335 2.12-.04.33-.175.413-.48.4-.496-.02-.995-.006-1.493-.006"/><path fill="#1457B0" d="M40.42 4.464l-.1-.018c-.598 1.638-1.192 3.277-1.794 4.913-.092.25-.019.327.235.323.548-.01 1.097-.003 1.645-.003 1.08 0 1.085-.001.868-1.073-.28-1.381-.57-2.762-.854-4.142m3.816 10.318h-.498c-1.219 0-1.219 0-1.454-1.222-.181-.939-.181-.939-1.13-.939-1.13 0-2.26.012-3.39-.007-.313-.006-.478.076-.572.389-.148.493-.351.969-.514 1.457-.08.24-.208.332-.468.328a77.81 77.81 0 00-3.14.002c-.52.014-.327-.236-.226-.476l4.193-10.03c.372-.889.774-1.767 1.112-2.669.334-.889.974-1.267 1.875-1.277.864-.009 1.728.015 2.591-.011.315-.01.394.137.447.392.699 3.389 1.403 6.777 2.105 10.165.246 1.19.478 2.382.743 3.567.066.296-.02.343-.279.335-.464-.014-.93-.004-1.395-.004" mask="url(#visa_b)"/></g></svg>
<svg style="fill: #222222;" width="30" height="30" x="10" y="170" id="mastercard" viewBox="0 0 30 23"><g fill="none"><path fill="#000" d="M5.32 22.637v-1.506c0-.577-.35-.953-.953-.953-.301 0-.628.1-.854.426-.175-.276-.426-.426-.803-.426a.81.81 0 00-.702.35v-.3H1.48v2.409h.527v-1.33c0-.427.226-.628.577-.628s.527.226.527.628v1.33h.527v-1.33c0-.427.25-.628.577-.628.352 0 .527.226.527.628v1.33h.577zm7.805-2.41h-.853V19.5h-.527v.728h-.477v.477h.477v1.104c0 .552.226.878.828.878a1.4 1.4 0 00.653-.176l-.15-.451a.826.826 0 01-.452.125c-.251 0-.352-.15-.352-.401v-1.08h.853v-.476zm4.468-.05a.707.707 0 00-.628.352v-.301h-.527v2.409h.527v-1.355c0-.402.176-.628.502-.628.1 0 .226.025.326.05l.15-.501c-.1-.025-.25-.025-.35-.025zm-6.751.251c-.251-.175-.603-.25-.98-.25-.601 0-1.003.3-1.003.778 0 .401.301.627.828.702l.251.025c.276.05.427.126.427.251 0 .176-.2.301-.552.301-.352 0-.628-.125-.803-.25l-.251.401c.276.2.652.301 1.029.301.702 0 1.104-.326 1.104-.778 0-.426-.326-.652-.828-.728l-.251-.025c-.226-.025-.402-.075-.402-.226 0-.175.176-.276.452-.276.301 0 .602.126.753.201l.226-.427zm14.003-.25a.707.707 0 00-.627.35v-.3h-.527v2.409h.527v-1.355c0-.402.176-.628.502-.628.1 0 .226.025.326.05l.15-.501c-.1-.025-.25-.025-.35-.025zm-6.725 1.254c0 .728.502 1.255 1.28 1.255.35 0 .602-.075.853-.276l-.251-.427c-.2.151-.402.226-.628.226-.426 0-.727-.3-.727-.778 0-.451.3-.753.727-.778.226 0 .427.076.628.226l.25-.426c-.25-.201-.501-.276-.852-.276-.778 0-1.28.527-1.28 1.254zm4.868 0v-1.204h-.527v.3c-.175-.225-.426-.35-.753-.35-.677 0-1.204.527-1.204 1.254 0 .728.527 1.255 1.204 1.255.352 0 .603-.125.753-.351v.301h.527v-1.205zm-1.932 0c0-.426.276-.778.728-.778.426 0 .727.327.727.778 0 .427-.3.778-.727.778-.452-.025-.728-.351-.728-.778zm-6.3-1.254c-.702 0-1.204.501-1.204 1.254s.502 1.255 1.23 1.255c.351 0 .702-.1.979-.326l-.251-.377a1.2 1.2 0 01-.703.251c-.326 0-.653-.15-.728-.577h1.782v-.2c.025-.779-.427-1.28-1.104-1.28zm0 .451c.327 0 .553.201.603.577h-1.255c.05-.326.276-.577.653-.577zm13.076.803v-2.158h-.527v1.255c-.176-.226-.427-.351-.753-.351-.678 0-1.205.527-1.205 1.254 0 .728.527 1.255 1.205 1.255.351 0 .602-.125.753-.351v.301h.527v-1.205zm-1.932 0c0-.426.276-.778.727-.778.427 0 .728.327.728.778 0 .427-.301.778-.728.778-.451-.025-.727-.351-.727-.778zm-17.618 0v-1.204h-.527v.3c-.176-.225-.427-.35-.753-.35-.678 0-1.205.527-1.205 1.254 0 .728.527 1.255 1.205 1.255.351 0 .602-.125.753-.351v.301h.527v-1.205zm-1.958 0c0-.426.276-.778.728-.778.427 0 .728.327.728.778 0 .427-.301.778-.728.778-.452-.025-.728-.351-.728-.778z"/><path fill="#FF5F00" d="M10.666 1.932h7.905v14.205h-7.905z"/><path fill="#EB001B" d="M11.168 9.035a9.059 9.059 0 013.438-7.103A8.98 8.98 0 009.035 0 9.029 9.029 0 000 9.035a9.029 9.029 0 009.035 9.034 8.98 8.98 0 005.571-1.932 9.021 9.021 0 01-3.438-7.102z"/><path fill="#F79E1B" d="M29.237 9.035a9.029 9.029 0 01-9.034 9.034 8.98 8.98 0 01-5.572-1.932 8.983 8.983 0 003.438-7.102 9.059 9.059 0 00-3.438-7.103A8.98 8.98 0 0120.203 0c4.994 0 9.034 4.066 9.034 9.035z"/></g></svg>
<svg style="fill: #222222;" width="30" height="30" x="10" y="210" id="maestro" viewBox="0 0 30 23"><path fill="#6C6BBD" d="M18.59 16.155h-7.914V1.934h7.914z"/><path fill="#D32011" d="M11.179 9.045a9.03 9.03 0 013.454-7.111A9.044 9.044 0 000 9.044a9.044 9.044 0 0014.633 7.112 9.03 9.03 0 01-3.454-7.111"/><path fill="#0099DF" d="M29.266 9.045a9.044 9.044 0 01-14.633 7.11 9.028 9.028 0 003.455-7.11 9.028 9.028 0 00-3.455-7.111 9.044 9.044 0 0114.633 7.11"/><path fill="#110F0D" d="M21.268 20.174c.105 0 .256.02.372.066l-.161.492a.846.846 0 00-.327-.06c-.342 0-.512.22-.512.617v1.347h-.523v-2.402h.517v.292a.709.709 0 01.634-.352zm-1.931.538h-.854v1.085c0 .24.085.402.346.402a.963.963 0 00.462-.136l.15.447a1.225 1.225 0 01-.652.186c-.618 0-.834-.332-.834-.89v-1.094h-.487v-.478h.487v-.728h.528v.728h.854v.478zm-6.687.512c.055-.347.266-.583.638-.583.336 0 .552.21.608.583H12.65zm1.788.211c-.005-.749-.467-1.261-1.14-1.261-.704 0-1.196.512-1.196 1.261 0 .763.512 1.26 1.231 1.26.362 0 .693-.09.985-.336l-.257-.387a1.14 1.14 0 01-.698.251c-.336 0-.643-.155-.718-.587h1.783c.005-.066.01-.13.01-.201zm2.296-.588a1.54 1.54 0 00-.748-.206c-.287 0-.457.106-.457.282 0 .16.18.206.406.235l.246.035c.523.076.84.297.84.72 0 .456-.403.783-1.096.783-.392 0-.753-.1-1.04-.312l.246-.407c.176.136.438.252.8.252.356 0 .547-.106.547-.292 0-.135-.136-.211-.422-.25l-.246-.036c-.538-.076-.83-.317-.83-.708 0-.478.393-.77 1-.77.383 0 .73.087.98.252l-.226.422zm6.443-.177a.791.791 0 00-.3.057.72.72 0 00-.397.403.826.826 0 00-.058.313c0 .114.02.219.058.313a.72.72 0 00.398.403.78.78 0 00.3.057.778.778 0 00.299-.056.718.718 0 00.4-.404.824.824 0 00.058-.313.826.826 0 00-.057-.313.731.731 0 00-.7-.46zm0-.496c.187 0 .36.032.518.097a1.221 1.221 0 01.684.668c.065.155.098.323.098.504s-.033.35-.099.504a1.224 1.224 0 01-.683.669 1.363 1.363 0 01-.518.096c-.186 0-.359-.032-.517-.096a1.252 1.252 0 01-.41-.267 1.239 1.239 0 01-.271-.402 1.278 1.278 0 01-.098-.504 1.236 1.236 0 01.78-1.172 1.34 1.34 0 01.516-.097zm-13.58 1.261c0-.422.277-.769.729-.769.432 0 .723.332.723.769s-.291.768-.723.768c-.452 0-.729-.346-.729-.768zm1.944 0v-1.2h-.522v.29c-.166-.215-.417-.351-.758-.351-.674 0-1.2.527-1.2 1.261 0 .733.526 1.261 1.2 1.261.341 0 .592-.136.758-.352v.292h.522v-1.201zm-2.943 1.2V21.13c0-.568-.362-.95-.944-.955-.307-.005-.624.09-.845.427-.165-.266-.427-.427-.794-.427-.256 0-.507.075-.703.356v-.296H4.79v2.402h.527v-1.332c0-.416.231-.638.588-.638.347 0 .523.226.523.633v1.337h.527v-1.332c0-.416.241-.638.588-.638.357 0 .527.226.527.633v1.337h.528z"/></svg>
<svg style="fill: #222222;" width="30" height="30" x="10" y="250" id="mir" viewBox="0 0 52 15"><g fill="none"><path fill="#37A72E" d="M37.268 6.607v8.018h4.454V9.874h5.048a4.939 4.939 0 004.61-3.267H37.268z"/><path fill="#00f" d="M36.674 0c.26 3.277 3.36 5.865 7.146 5.865h7.745A4.936 4.936 0 0046.752 0H36.675z"/><path fill="#37A72E" d="M30.081 5.787l.004-.008a.267.267 0 01.501.123v8.649h4.455V0h-4.455c-.565.019-1.203.433-1.44.942l-3.545 7.602a.296.296 0 01-.04.086l-.001.003a.297.297 0 01-.542-.17V0h-4.454v14.55h4.454c.56-.03 1.182-.44 1.416-.941l3.638-7.803a.266.266 0 01.01-.02zm-16.632.249l-2.604 8.515H7.641L5.036 6.03a.293.293 0 00-.582.057v8.463H0V0h4.962c.82 0 1.678.636 1.918 1.42l2.168 7.09c.108.353.283.352.39 0l2.168-7.09C11.846.635 12.704 0 13.524 0h4.961v14.55h-4.454V6.085a.293.293 0 00-.582-.048z"/></g></svg>
<svg style="fill: #222222;" width="30" height="30" x="10" y="290" id="cash" viewBox="-4 0 438 438.42"><path d="M324.809 121.55H389.8c16.566 0 30 13.43 30 30v59.56H340.75c-22.09 0-40 17.91-40 40v48.171c0 22.09 17.91 40 40 40h79.05v59.559c0 16.57-13.433 30-30 30H40.622c-16.57 0-30-13.43-30-30V151.55c-.023-16.546 13.371-29.976 29.918-30zm0 0" fill="#00acea"/><path d="M419.8 211.11V339.28h-79.05c-22.09 0-40-17.91-40-40V251.11c0-22.09 17.91-40 40-40zm-36.85 64.46c0-12.011-9.74-21.75-21.75-21.75s-21.75 9.739-21.75 21.75c0 12.012 9.737 21.75 21.75 21.75s21.75-9.734 21.75-21.742zm0 0" fill="#fedb41"/><path d="M339.898 13.219V121.55h-15.09L248.29 45.71zm0 0" fill="#00efd1"/><path d="M248.29 45.71l76.519 75.84H100.71l36.078-36.081.02-.008L212.262 10zm0 0" fill="#fedb41"/><g fill="#083863"><path d="M389.8 111.418h-39.59v-98.2a10.221 10.221 0 00-13.573-9.425L250.91 34.188l-31.594-31.29c-3.914-3.875-10.222-3.863-14.117.032l-73.875 73.879-99.96 35.78c-18.13 4.247-31 20.345-31.153 38.962V398.84c0 22.055 18.351 39.578 40.41 39.578h349.18c22.054 0 40.41-17.523 40.41-39.578V151.55c0-22.058-18.356-40.132-40.41-40.132zm-59.59-84.043v84.043h-1.284L266.789 49.75zM143.884 92.531l68.41-68.484 88.219 87.371h-175.66l18.757-18.688c.09-.085.184-.109.274-.199zm-50.184 18.887l4.473-1.598-1.602 1.598zm296.102 307H40.62c-11.027 0-20.41-8.55-20.41-19.578V151.55a20.337 20.337 0 0116.062-19.64 22.604 22.604 0 014.348-.492h349.18c11.027 0 20.41 9.102 20.41 20.133v49.867H340.75c-27.281-.074-49.46 21.977-49.54 49.262v48.601c0 27.57 21.97 50.137 49.54 50.137h69.46v49.422c0 11.027-9.382 19.578-20.41 19.578zm20.41-197v108H340.75c-16.54 0-29.54-13.598-29.54-30.137V251.11c-.17-16.226 12.84-29.515 29.067-29.691h.473zm0 0"/><path d="M329.45 275.57c0 17.535 14.214 31.75 31.75 31.75 17.534 0 31.75-14.215 31.75-31.75s-14.216-31.75-31.75-31.75c-17.536 0-31.75 14.215-31.75 31.75zm31.75-11.75c6.488 0 11.75 5.262 11.75 11.75 0 6.489-5.262 11.75-11.75 11.75s-11.75-5.261-11.75-11.75c.007-6.488 5.265-11.742 11.75-11.75zm0 0"/></g></svg>
<svg style="fill: #222222;" width="30" height="30" x="10" y="330" id="bank" viewBox="0 0 512 512"><g id="filled_outline" data-name="filled outline"><path d="M488 488H24v-32l8-16h448l8 16z" fill="#99d8aa"/><path d="M256 24L32 152v48h448v-48z" fill="#85bc94"/><g fill="#a3e6b5"><path d="M211.76 394.86L208 408h-32l-3.76-13.14a156.082 156.082 0 010-85.72L176 296h32l3.76 13.14a156.082 156.082 0 010 85.72zM160 264h64v22a10 10 0 01-10 10h-44a10 10 0 01-10-10v-22z"/><path d="M160 408h64v22a10 10 0 01-10 10h-44a10 10 0 01-10-10v-22z" transform="rotate(180 192 424)"/><path d="M339.76 394.86L336 408h-32l-3.76-13.14a156.082 156.082 0 010-85.72L304 296h32l3.76 13.14a156.082 156.082 0 010 85.72zM288 264h64v22a10 10 0 01-10 10h-44a10 10 0 01-10-10v-22z"/><path d="M288 408h64v22a10 10 0 01-10 10h-44a10 10 0 01-10-10v-22z" transform="rotate(180 320 424)"/><path d="M83.76 394.86L80 408H48l-3.76-13.14a156.082 156.082 0 010-85.72L48 296h32l3.76 13.14a156.082 156.082 0 010 85.72zM32 264h64v22a10 10 0 01-10 10H42a10 10 0 01-10-10v-22z"/><path d="M32 408h64v22a10 10 0 01-10 10H42a10 10 0 01-10-10v-22z" transform="rotate(180 64 424)"/><path d="M467.76 394.86L464 408h-32l-3.76-13.14a156.082 156.082 0 010-85.72L432 296h32l3.76 13.14a156.082 156.082 0 010 85.72z"/></g><path d="M202 394.86L198.24 408H176l-3.76-13.14a156.082 156.082 0 010-85.72L176 296h22.24l3.76 13.14a156.082 156.082 0 010 85.72zM330 394.86L326.24 408H304l-3.76-13.14a156.082 156.082 0 010-85.72L304 296h22.24l3.76 13.14a156.082 156.082 0 010 85.72zM74 394.86L70.24 408H48l-3.76-13.14a156.082 156.082 0 010-85.72L48 296h22.24L74 309.14a156.082 156.082 0 010 85.72zM458 394.86L454.24 408H432l-3.76-13.14a156.082 156.082 0 010-85.72L432 296h22.24l3.76 13.14a156.082 156.082 0 010 85.72z" fill="#8dc79d"/><path d="M416 264h64v22a10 10 0 01-10 10h-44a10 10 0 01-10-10v-22z" fill="#a3e6b5"/><path d="M416 408h64v22a10 10 0 01-10 10h-44a10 10 0 01-10-10v-22z" fill="#a3e6b5" transform="rotate(180 448 424)"/><path d="M64 168L256 64l192 104v32H64zM32 232h448v32H32z" fill="#99d8aa"/><circle cx="256" cy="136" fill="#85bc94" r="32"/><circle cx="256" cy="136" fill="#8ec99e" r="24"/><path d="M168 136h32v16h-32zM312 136h32v16h-32zM224 456h16v16h-16zM256 456h48v16h-48z" fill="#85bc94"/><path d="M32 264h64v16H32zM160 264h64v16h-64zM288 264h64v16h-64zM416 264h64v16h-64zM32 424h64v16H32zM160 424h64v16h-64zM288 424h64v16h-64zM416 424h64v16h-64z" fill="#8dc79d"/><path d="M488 456H24l8-16h448z" fill="#a3e6b5"/><path d="M32 224h448v16H32z" fill="#85bc94"/><path d="M480 232H32l-8-32h464z" fill="#a3e6b5"/><path d="M488 438.112V418a18.016 18.016 0 00-13.559-17.423l1.007-3.523a163.856 163.856 0 000-90.108l-1.007-3.523A18.016 18.016 0 00488 286v-53.015l7.761-31.045A8 8 0 00488 192v-40a8 8 0 00-4.031-6.946l-224-128a8 8 0 00-7.938 0l-224 128A8 8 0 0024 152v40a8 8 0 00-7.761 9.94L24 232.985V286a18.016 18.016 0 0013.559 17.423l-1.007 3.523a163.856 163.856 0 000 90.108l1.007 3.523A18.016 18.016 0 0024 418v20.112l-7.155 14.31A7.994 7.994 0 0016 456v32a8 8 0 008 8h464a8 8 0 008-8v-32a7.994 7.994 0 00-.845-3.578zM40 156.643L256 33.214l216 123.429V192h-16v-24a8 8 0 00-4.19-7.034l-192-104a8 8 0 00-7.62 0l-192 104A8 8 0 0056 168v24H40zm400 16.122V192H72v-19.235L256 73.1zM34.246 208h443.508l-4 16H38.246zM470 416a2 2 0 012 2v14h-48v-14a2 2 0 012-2zm-34.063-104.659l2.1-7.341h19.932l2.1 7.341a147.864 147.864 0 010 81.318l-2.1 7.341h-19.935l-2.1-7.341a147.864 147.864 0 01.003-81.318zM470 288h-44a2 2 0 01-2-2v-14h48v14a2 2 0 01-2 2zM40 256v-16h432v16zm380.552 141.054l1.007 3.523A18.016 18.016 0 00408 418v14h-48v-14a18.016 18.016 0 00-13.559-17.423l1.007-3.523a163.856 163.856 0 000-90.108l-1.007-3.523A18.016 18.016 0 00360 286v-14h48v14a18.016 18.016 0 0013.559 17.423l-1.007 3.523a163.856 163.856 0 000 90.108zM342 416a2 2 0 012 2v14h-48v-14a2 2 0 012-2zm-34.063-104.659l2.1-7.341h19.932l2.1 7.341a147.864 147.864 0 010 81.318l-2.1 7.341h-19.935l-2.1-7.341a147.864 147.864 0 01.003-81.318zM342 288h-44a2 2 0 01-2-2v-14h48v14a2 2 0 01-2 2zm-49.448 109.054l1.007 3.523A18.016 18.016 0 00280 418v14h-48v-14a18.016 18.016 0 00-13.559-17.423l1.007-3.523a163.856 163.856 0 000-90.108l-1.007-3.523A18.016 18.016 0 00232 286v-14h48v14a18.016 18.016 0 0013.559 17.423l-1.007 3.523a163.856 163.856 0 000 90.108zM214 416a2 2 0 012 2v14h-48v-14a2 2 0 012-2zm-34.063-104.659l2.1-7.341h19.932l2.1 7.341a147.864 147.864 0 010 81.318l-2.1 7.341h-19.935l-2.1-7.341a147.864 147.864 0 01.003-81.318zM214 288h-44a2 2 0 01-2-2v-14h48v14a2 2 0 01-2 2zm-49.448 109.054l1.007 3.523A18.016 18.016 0 00152 418v14h-48v-14a18.016 18.016 0 00-13.559-17.423l1.007-3.523a163.856 163.856 0 000-90.108l-1.007-3.523A18.016 18.016 0 00104 286v-14h48v14a18.016 18.016 0 0013.559 17.423l-1.007 3.523a163.856 163.856 0 000 90.108zM86 416a2 2 0 012 2v14H40v-14a2 2 0 012-2zM51.937 311.341l2.1-7.341h19.929l2.1 7.341a147.864 147.864 0 010 81.318l-2.1 7.341H54.034l-2.1-7.341a147.864 147.864 0 01.003-81.318zM86 288H42a2 2 0 01-2-2v-14h48v14a2 2 0 01-2 2zm394 192H32v-22.111L36.944 448h438.112l4.944 9.889z"/><path d="M216 136a40 40 0 1040-40 40.045 40.045 0 00-40 40zm64 0a24 24 0 11-24-24 24.028 24.028 0 0124 24zM168 136h32v16h-32zM312 136h32v16h-32zM224 456h16v16h-16zM256 456h48v16h-48z"/></g></svg>
<svg style="fill: #222222;" width="30" height="30" x="10" y="370" id="quest" viewBox="0 0 431.855 431.855"><path d="M215.936 0C96.722 0 .008 96.592.008 215.814c0 119.336 96.714 216.041 215.927 216.041 119.279 0 215.911-96.706 215.911-216.041C431.847 96.592 335.214 0 215.936 0zm15.387 335.962c-5.015 4.463-10.827 6.706-17.411 6.706-6.812 0-12.754-2.203-17.826-6.617-5.08-4.406-7.625-10.575-7.625-18.501 0-7.031 2.463-12.949 7.373-17.745 4.91-4.796 10.933-7.194 18.078-7.194 7.031 0 12.949 2.398 17.753 7.194 4.796 4.796 7.202 10.713 7.202 17.745-.009 7.812-2.521 13.95-7.544 18.412zm62.533-155.028c-3.853 7.145-8.429 13.306-13.737 18.501-5.292 5.194-14.81 13.924-28.548 26.198-3.788 3.463-6.836 6.503-9.12 9.12-2.284 2.626-3.991 5.023-5.105 7.202a34.697 34.697 0 00-2.593 6.535c-.61 2.17-1.528 5.999-2.772 11.469-2.113 11.608-8.754 17.411-19.915 17.411-5.804 0-10.681-1.894-14.656-5.69-3.959-3.796-5.934-9.429-5.934-16.907 0-9.372 1.455-17.493 4.357-24.361 2.886-6.869 6.747-12.892 11.543-18.086 4.804-5.194 11.274-11.356 19.427-18.501 7.145-6.251 12.307-10.965 15.485-14.144a47.87 47.87 0 008.031-10.632c2.187-3.91 3.26-8.145 3.26-12.721 0-8.933-3.308-16.46-9.957-22.597-6.641-6.137-15.209-9.21-25.703-9.21-12.282 0-21.321 3.097-27.125 9.291-5.804 6.194-10.705 15.314-14.729 27.369-3.804 12.616-11.006 18.923-21.598 18.923-6.251 0-11.526-2.203-15.826-6.609-4.292-4.406-6.438-9.177-6.438-14.314 0-10.6 3.406-21.346 10.21-32.23 6.812-10.884 16.745-19.899 29.807-27.036 13.054-7.145 28.296-10.722 45.699-10.722 16.184 0 30.466 2.991 42.854 8.966 12.388 5.966 21.963 14.087 28.718 24.361 6.747 10.266 10.128 21.427 10.128 33.482.016 9.471-1.91 17.787-5.763 24.932z" fill="#010002"/></svg>


</svg>