<svg xmlns="http://www.w3.org/2000/svg" height="126" width="126" fill="none" viewBox="-1 -1 126 126" x="596" y="126"><path d="M0 7h120v117H0z"/><path d="M81.83 34.647c-.745 3.512 1.505 6.962 5.024 7.704l30.018 6.339 6.464-28.357a6.5 6.5 0 00-4.905-7.78c-3.507-.797-6.997 1.395-7.795 4.896l-2.1 9.209a6.513 6.513 0 00-.458-.678C97.384 12.31 80.714 3.502 61.987 3.502 29.67 3.502 3.497 29.707 3.497 62c0 32.295 26.173 58.5 58.49 58.5s58.489-26.205 58.489-58.5c0-3.59-2.917-6.5-6.512-6.5-3.598 0-6.513 2.91-6.513 6.5 0 25.144-20.37 45.5-45.464 45.5S16.523 87.145 16.523 62c0-25.143 20.37-45.5 45.464-45.5 13.035 0 27.212 6.686 35.51 15.5l-7.95-2.367c-3.52-.743-6.975 1.502-7.72 5.014z" fill-rule="evenodd" clip-rule="evenodd" fill="#008937"/></svg>