<?xml version="1.0"?>
<svg xmlns="http://www.w3.org/2000/svg" xmlns:xlink="http://www.w3.org/1999/xlink" x="0px" y="0px" viewBox="0 0 512 512">
<circle style="fill:#2196F3;fill:#929292" cx="256" cy="256" r="256"/>
<path d="M256,512C114.615,512,0,397.385,0,256S114.615,0,256,0s256,114.615,256,256C511.841,397.319,397.319,511.841,256,512z
	 M256,32C132.288,32,32,132.288,32,256s100.288,224,224,224s224-100.288,224-224C479.859,132.347,379.653,32.141,256,32z"/>
<g><path style="fill:#FAFAFA;" d="M240,384c-8.837,0-16-7.163-16-16V144c0-8.837,7.163-16,16-16h80c35.346,0,64,28.654,64,64
		s-28.654,64-64,64h-64v112C256,376.837,248.837,384,240,384z M256,224h64c17.673,0,32-14.327,32-32s-14.327-32-32-32h-64V224z"/>
<path style="fill:#FAFAFA;" d="M304,320H176c-8.837,0-16-7.163-16-16s7.163-16,16-16h128c8.837,0,16,7.163,16,16
		S312.837,320,304,320z"/></g></svg>